<svg width="461" height="530" viewBox="0 0 461 530" fill="none" xmlns="http://www.w3.org/2000/svg">
<path id="Vector 2" d="M364 48C355 29 334 20 334 20C291 -2 241 12 241 12C184 34 147 86 147 86C27 237 8 451 8 451C8 451 64 610 180 451C180 451 204 389 220 382C236 375 285.711 373.074 315 382C334 416 345 451 345 451C403 521 452 451 452 451C459 410 426 216 426 216C415 148 394 100 394 100M364 48L380 56C388.646 67.3704 396.264 77.9154 394 100M364 48C364 48 284 20 233 28C233 28 202 41 180 86C180 86 170 99 189 113C189 113 364 144 380 145C396 146 394 100 394 100" stroke="#B6B6B6" stroke-width="15"/>
</svg>
